<svg width="13" height="21" viewBox="0 0 13 21" fill="none" xmlns="http://www.w3.org/2000/svg">
<path d="M3.06066 0.439339C2.47488 -0.146447 1.52513 -0.146447 0.939341 0.439339C0.353555 1.02513 0.353555 1.97487 0.939341 2.56066L3.06066 0.439339ZM11 10.5L12.0607 11.5607C12.6464 10.9749 12.6464 10.0251 12.0607 9.43934L11 10.5ZM0.93934 18.4393C0.353553 19.0251 0.353553 19.9749 0.93934 20.5607C1.52513 21.1464 2.47487 21.1464 3.06066 20.5607L0.93934 18.4393ZM0.939341 2.56066L9.93934 11.5607L12.0607 9.43934L3.06066 0.439339L0.939341 2.56066ZM9.93934 9.43934L0.93934 18.4393L3.06066 20.5607L12.0607 11.5607L9.93934 9.43934Z" fill="black"/>
</svg>
