<svg width="21" height="22" viewBox="0 0 21 22" fill="none" xmlns="http://www.w3.org/2000/svg">
<path d="M9.93934 21.0607C10.5251 21.6464 11.4749 21.6464 12.0607 21.0607C12.6464 20.4749 12.6464 19.5251 12.0607 18.9393L9.93934 21.0607ZM2 11L0.93934 9.93934C0.353553 10.5251 0.353553 11.4749 0.93934 12.0607L2 11ZM12.0607 3.06066C12.6464 2.47487 12.6464 1.52513 12.0607 0.93934C11.4749 0.353553 10.5251 0.353553 9.93934 0.93934L12.0607 3.06066ZM12.0607 18.9393L3.06066 9.93934L0.93934 12.0607L9.93934 21.0607L12.0607 18.9393ZM3.06066 12.0607L12.0607 3.06066L9.93934 0.93934L0.93934 9.93934L3.06066 12.0607Z" fill="black"/>
<path d="M17.9393 21.0607C18.5251 21.6464 19.4749 21.6464 20.0607 21.0607C20.6464 20.4749 20.6464 19.5251 20.0607 18.9393L17.9393 21.0607ZM10 11L8.93934 9.93934C8.35355 10.5251 8.35355 11.4749 8.93934 12.0607L10 11ZM20.0607 3.06066C20.6464 2.47487 20.6464 1.52513 20.0607 0.93934C19.4749 0.353553 18.5251 0.353553 17.9393 0.93934L20.0607 3.06066ZM20.0607 18.9393L11.0607 9.93934L8.93934 12.0607L17.9393 21.0607L20.0607 18.9393ZM11.0607 12.0607L20.0607 3.06066L17.9393 0.93934L8.93934 9.93934L11.0607 12.0607Z" fill="black"/>
</svg>
