<svg width="21" height="22" viewBox="0 0 21 22" fill="none" xmlns="http://www.w3.org/2000/svg">
<path d="M11.0607 0.939339C10.4749 0.353553 9.52513 0.353553 8.93934 0.939339C8.35356 1.52513 8.35355 2.47487 8.93934 3.06066L11.0607 0.939339ZM19 11L20.0607 12.0607C20.6464 11.4749 20.6464 10.5251 20.0607 9.93934L19 11ZM8.93934 18.9393C8.35355 19.5251 8.35355 20.4749 8.93934 21.0607C9.52513 21.6464 10.4749 21.6464 11.0607 21.0607L8.93934 18.9393ZM8.93934 3.06066L17.9393 12.0607L20.0607 9.93934L11.0607 0.939339L8.93934 3.06066ZM17.9393 9.93934L8.93934 18.9393L11.0607 21.0607L20.0607 12.0607L17.9393 9.93934Z" fill="black"/>
<path d="M3.06066 0.939339C2.47488 0.353553 1.52513 0.353553 0.939341 0.939339C0.353555 1.52513 0.353555 2.47487 0.939341 3.06066L3.06066 0.939339ZM11 11L12.0607 12.0607C12.6464 11.4749 12.6464 10.5251 12.0607 9.93934L11 11ZM0.93934 18.9393C0.353553 19.5251 0.353553 20.4749 0.93934 21.0607C1.52513 21.6464 2.47487 21.6464 3.06066 21.0607L0.93934 18.9393ZM0.939341 3.06066L9.93934 12.0607L12.0607 9.93934L3.06066 0.939339L0.939341 3.06066ZM9.93934 9.93934L0.93934 18.9393L3.06066 21.0607L12.0607 12.0607L9.93934 9.93934Z" fill="black"/>
</svg>
