
<svg version="1.1" id="Layer_1" xmlns="http://www.w3.org/2000/svg" xmlns:xlink="http://www.w3.org/1999/xlink" x="0px" y="0px"
	viewBox="0 0 65.3 64.8" style="enable-background:new 0 0 65.3 64.8;" xml:space="preserve">
<path d="M33,14.6c-1.3,0-2.4,0.4-3.3,1.2c-0.9,0.8-1.4,1.9-1.4,3.1c0,0.6,0.1,1.2,0.4,1.7c0.3,0.5,0.6,1,1,1.4
	c0.4,0.4,0.9,0.7,1.5,0.9c0.6,0.2,1.2,0.4,1.8,0.4c1.3,0,2.4-0.4,3.3-1.3c0.9-0.9,1.4-1.9,1.4-3.1c0-1.2-0.5-2.2-1.4-3.1
	C35.3,15.1,34.2,14.6,33,14.6z M33,15.6c1,0,1.9,0.3,2.6,1c0.7,0.7,1.1,1.4,1.1,2.3c0,0.9-0.3,1.7-1,2.4c-0.7,0.7-1.6,1-2.6,1
	c-0.5,0-1-0.1-1.5-0.3c-0.5-0.2-0.8-0.4-1.2-0.7c-0.3-0.3-0.6-0.7-0.8-1.1c-0.2-0.4-0.3-0.8-0.3-1.3c0-0.9,0.4-1.7,1.1-2.4
	C31.1,16,31.9,15.6,33,15.6z M25.6,26.1c-0.3,0-0.5,0.2-0.5,0.5v2.6c0,0.3,0.2,0.5,0.5,0.5c3.6,0,3.6,1.2,3.6,1.6V45
	c0,0.4,0,1.5-3.6,1.5c-0.3,0-0.5,0.2-0.5,0.5v2.6c0,0.3,0.2,0.5,0.5,0.5h15c0.3,0,0.5-0.2,0.5-0.5V47c0-0.3-0.2-0.5-0.5-0.5
	c-1.7,0-2.8-0.2-3.3-0.7c-0.2-0.2-0.3-0.4-0.3-0.8v0V26.6c0-0.3-0.2-0.5-0.5-0.5H25.6z M26.1,27.1h10v17.9c0,0.6,0.2,1.1,0.5,1.5
	c0.6,0.6,1.7,1,3.5,1V49h-14v-1.6c1.4,0,4.1-0.3,4.1-2.5V31.2c0-1.6-1.4-2.5-4.1-2.6V27.1z"/>
<g>
	<path d="M53.6,64.8h-42C5.2,64.8,0,59.5,0,53.1V11.7C0,5.2,5.2,0,11.7,0h42c6.4,0,11.7,5.2,11.7,11.7v41.4
		C65.3,59.5,60.1,64.8,53.6,64.8z M11.7,1.9c-5.4,0-9.8,4.4-9.8,9.8v41.4c0,5.4,4.4,9.8,9.8,9.8h42c5.4,0,9.8-4.4,9.8-9.8V11.7
		c0-5.4-4.4-9.8-9.8-9.8H11.7z"/>
</g>
<g>
	<rect x="59.3" y="22.1" width="1.2" height="3.4"/>
	<rect x="59.3" y="27.8" width="1.2" height="4.6"/>
	<path d="M59.3,34.7v17.2c0,4.1-3.3,7.4-7.4,7.4H13.4C9.3,59.3,6,56,6,51.9v-39c0-4.1,3.3-7.4,7.4-7.4h35.2V4.3H13.4
		c-4.8,0-8.6,3.9-8.6,8.6v39c0,4.8,3.9,8.6,8.6,8.6h38.5c4.8,0,8.6-3.9,8.6-8.6V34.7H59.3z"/>
</g>
</svg>
